<svg width="15" height="16" viewBox="0 0 15 16" fill="none" xmlns="http://www.w3.org/2000/svg">
<g clip-path="url(#clip0_2030_1522)">
<path d="M14.7756 9.81429C13.7738 13.8322 9.70387 16.2774 5.68504 15.2755C1.6679 14.2738 -0.777593 10.204 0.224639 6.18648C1.22599 2.16814 5.29593 -0.277254 9.31351 0.724426C13.332 1.7261 15.7774 5.79628 14.7755 9.81436L14.7756 9.81429H14.7756Z" fill="#F7931A"/>
<path d="M11.9791 6.52009C12.1455 5.46933 11.2984 4.9045 10.1399 4.5277L10.5157 3.10435L9.5982 2.88845L9.23237 4.27433C8.99116 4.21752 8.74344 4.16399 8.49724 4.11092L8.86573 2.7159L7.94876 2.5L7.57276 3.92289C7.37314 3.87998 7.17709 3.83756 6.98688 3.79287L6.98794 3.78839L5.72264 3.49002L5.47856 4.41543C5.47856 4.41543 6.1593 4.56278 6.14495 4.57185C6.5165 4.65942 6.58369 4.89169 6.57254 5.07578L6.14446 6.69732C6.17005 6.70345 6.20323 6.71233 6.23985 6.72622C6.20924 6.71905 6.17667 6.71121 6.14287 6.70357L5.54285 8.97511C5.49745 9.08171 5.38219 9.24168 5.12242 9.18093C5.13162 9.19352 4.45554 9.02378 4.45554 9.02378L4 10.0156L5.19402 10.2967C5.41615 10.3493 5.63383 10.4043 5.84819 10.456L5.46851 11.8957L6.38498 12.1116L6.76099 10.6872C7.01136 10.7514 7.25434 10.8106 7.4922 10.8664L7.11746 12.2841L8.03504 12.5L8.41468 11.063C9.97928 11.3426 11.1557 11.2299 11.6509 9.89354C12.0499 8.81761 11.631 8.19701 10.8079 7.79231C11.4074 7.66175 11.859 7.28939 11.9794 6.52021L11.9791 6.52001L11.9791 6.52009ZM9.88274 9.29602C9.59918 10.372 7.68082 9.79034 7.05885 9.64449L7.5627 7.73716C8.18462 7.88378 10.1791 8.17393 9.88278 9.29602H9.88274ZM10.1665 6.5045C9.90784 7.48317 8.31116 6.98596 7.79321 6.86404L8.25002 5.13421C8.76796 5.25613 10.436 5.48368 10.1666 6.5045H10.1665Z" fill="white"/>
</g>
<defs>
<clipPath id="clip0_2030_1522">
<rect width="15" height="15" fill="white" transform="translate(0 0.5)"/>
</clipPath>
</defs>
</svg>
