<svg width="15" height="15" viewBox="0 0 15 15" fill="none" xmlns="http://www.w3.org/2000/svg">
<g clip-path="url(#clip0_6225_8619)">
<path d="M7.5 0C11.6425 0 15 3.35816 15 7.5C15 11.6425 11.6425 15 7.5 15C3.35816 15 0 11.6422 0 7.5C0 3.35816 3.35816 0 7.5 0Z" fill="#F5AC37"/>
<path d="M7.77393 8.0296H10.6238C10.6846 8.0296 10.7132 8.02961 10.7176 7.94995C10.7409 7.66004 10.7409 7.36844 10.7176 7.07818C10.7176 7.02182 10.6896 6.99853 10.6285 6.99853H4.95679C4.88659 6.99853 4.86769 7.02182 4.86769 7.08763V7.92194C4.86769 8.0296 4.86769 8.0296 4.98008 8.0296H7.77393ZM10.3994 6.02348C10.4075 6.00222 10.4075 5.97893 10.3994 5.95801C10.3518 5.8544 10.2954 5.75551 10.2299 5.66269C10.1314 5.50407 10.0153 5.35793 9.88299 5.22664C9.82055 5.14733 9.74833 5.07611 9.66733 5.0157C9.26165 4.67043 8.77935 4.42608 8.26095 4.30323C7.99938 4.2445 7.73208 4.21649 7.4641 4.21885H4.947C4.8768 4.21885 4.86735 4.24687 4.86735 4.30795V5.97185C4.86735 6.04205 4.86735 6.06095 4.95645 6.06095H10.3656C10.3656 6.06095 10.4125 6.0515 10.422 6.02348H10.399H10.3994ZM10.3994 9.00465C10.3197 8.99588 10.2394 8.99588 10.1597 9.00465H4.96152C4.89132 9.00465 4.86769 9.00465 4.86769 9.09848V10.7252C4.86769 10.8002 4.86769 10.8191 4.96152 10.8191H7.3615C7.47625 10.8278 7.591 10.8197 7.70339 10.7958C8.0517 10.7708 8.39426 10.6952 8.72097 10.5707C8.83977 10.5295 8.95452 10.4758 9.06286 10.4114H9.09559C9.65821 10.1188 10.1152 9.65907 10.4034 9.09477C10.4034 9.09477 10.4362 9.02389 10.3994 9.00533V9.00465ZM3.92572 11.6625V11.6345V10.5423V10.1721V9.07047C3.92572 9.00938 3.92572 9.00027 3.85079 9.00027H2.83356C2.77719 9.00027 2.75391 9.00026 2.75391 8.92534V8.03467H3.84134C3.90209 8.03467 3.92572 8.03467 3.92572 7.95502V7.0738C3.92572 7.01743 3.92572 7.00359 3.85079 7.00359H2.83356C2.77719 7.00359 2.75391 7.00359 2.75391 6.92867V6.10381C2.75391 6.05217 2.75391 6.03833 2.82883 6.03833H3.83662C3.90682 6.03833 3.92572 6.03834 3.92572 5.94923V3.42268C3.92572 3.34776 3.92572 3.32886 4.01954 3.32886H7.53498C7.79013 3.33898 8.0436 3.367 8.29436 3.41323C8.81108 3.50875 9.30755 3.69336 9.76149 3.95695C10.0625 4.13414 10.3396 4.34812 10.5863 4.5945C10.772 4.78721 10.9394 4.99579 11.0879 5.21786C11.2354 5.44298 11.3579 5.68362 11.4541 5.93506C11.4659 6.00053 11.5287 6.04475 11.5941 6.03361H12.4332C12.5408 6.03361 12.5408 6.03361 12.5456 6.13689V6.90572C12.5456 6.98064 12.5175 6.99954 12.4423 6.99954H11.7953C11.7298 6.99954 11.7109 6.99954 11.7156 7.08392C11.7413 7.36945 11.7413 7.65599 11.7156 7.94152C11.7156 8.02117 11.7156 8.03062 11.8051 8.03062H12.5452C12.578 8.07281 12.5452 8.11499 12.5452 8.15752C12.5499 8.21186 12.5499 8.26687 12.5452 8.32121V8.88855C12.5452 8.9682 12.5219 8.99183 12.4514 8.99183H11.5654C11.5037 8.98001 11.4436 9.0195 11.4294 9.08093C11.2185 9.62937 10.881 10.1211 10.4449 10.5153C10.2856 10.6588 10.1182 10.7938 9.9434 10.9183C9.75575 11.0263 9.57316 11.1387 9.38078 11.2278C9.02674 11.3871 8.65549 11.5045 8.27445 11.5791C7.91265 11.6439 7.54578 11.6733 7.17756 11.6682H3.92437V11.6635L3.92572 11.6625Z" fill="#FEFEFD"/>
</g>
<defs>
<clipPath id="clip0_6225_8619">
<rect width="15" height="15" fill="white"/>
</clipPath>
</defs>
</svg>
