<svg width="15" height="15" viewBox="0 0 15 15" fill="none" xmlns="http://www.w3.org/2000/svg">
<g clip-path="url(#clip0_4822_5801)">
<path fill-rule="evenodd" clip-rule="evenodd" d="M7.5 0C11.6422 0 15 3.35778 15 7.5C15 11.6419 11.6422 15 7.5 15C3.35778 15 0 11.6419 0 7.5C0 3.35778 3.35778 0 7.5 0Z" fill="#2775CA"/>
<path fill-rule="evenodd" clip-rule="evenodd" d="M6.09359 12.7144C6.09359 12.8908 5.95543 12.9911 5.78481 12.9378C3.51717 12.2144 1.87305 10.0881 1.87305 7.57913C1.87305 5.0703 3.51717 2.94388 5.78481 2.22047C5.95543 2.16755 6.09359 2.26743 6.09359 2.44385V2.87936C6.09359 2.99681 6.00256 3.13504 5.89066 3.17331C4.09654 3.83212 2.81131 5.55567 2.81131 7.57615C2.81131 9.59663 4.09654 11.3205 5.89066 11.979C6.00256 12.0202 6.09359 12.1554 6.09359 12.2733V12.7144Z" fill="white"/>
<path fill-rule="evenodd" clip-rule="evenodd" d="M7.96746 11.0939C7.96746 11.2234 7.8616 11.3293 7.73223 11.3293H7.2645C7.13513 11.3293 7.02927 11.2234 7.02927 11.0939V10.3528C6.0057 10.2147 5.50584 9.64103 5.3705 8.86171C5.34689 8.72918 5.45274 8.60867 5.58808 8.60867H6.12339C6.23513 8.60867 6.3293 8.68819 6.35283 8.79975C6.45288 9.26449 6.7205 9.6204 7.54098 9.6204C8.14686 9.6204 8.57641 9.28214 8.57641 8.77648C8.57641 8.2704 8.32337 8.07932 7.43513 7.93214C6.12339 7.75571 5.50285 7.35856 5.50285 6.32918C5.50285 5.53512 6.10294 4.91756 7.03226 4.78512V4.05864C7.03226 3.92918 7.1382 3.82324 7.26749 3.82324H7.73521C7.86459 3.82324 7.97044 3.92918 7.97044 4.05864V4.80574C8.72632 4.94125 9.20572 5.37037 9.36169 6.08211C9.39101 6.21762 9.28516 6.34384 9.147 6.34384H8.65277C8.54692 6.34384 8.45871 6.27319 8.42641 6.17032C8.29405 5.71759 7.97044 5.52353 7.40862 5.52353C6.78808 5.52353 6.46746 5.82344 6.46746 6.24395C6.46746 6.68807 6.64993 6.91145 7.60294 7.04995C8.89098 7.22637 9.55584 7.59395 9.55584 8.69125C9.55584 9.5235 8.93811 10.1971 7.97044 10.3528V11.0939H7.96746Z" fill="white"/>
<path fill-rule="evenodd" clip-rule="evenodd" d="M9.21503 12.938C9.04457 12.9913 8.90625 12.891 8.90625 12.7146V12.2794C8.90625 12.15 8.98568 12.0295 9.10918 11.9852C10.9033 11.3263 12.1885 9.6028 12.1885 7.58231C12.1885 5.56183 10.9033 3.83828 9.10918 3.17947C8.99744 3.13822 8.90625 3.00305 8.90625 2.88518V2.45001C8.90625 2.27359 9.04457 2.17072 9.21503 2.22629C11.4827 2.95013 13.1268 5.07646 13.1268 7.5853C13.124 10.0882 11.4827 12.2116 9.21503 12.938Z" fill="white"/>
</g>
<defs>
<clipPath id="clip0_4822_5801">
<rect width="15" height="15" fill="white"/>
</clipPath>
</defs>
</svg>
