<svg width="15" height="15" viewBox="0 0 15 15" fill="none" xmlns="http://www.w3.org/2000/svg">
<g clip-path="url(#clip0_6225_8640)">
<path d="M14.9879 7.49735C14.9879 11.619 11.6468 14.96 7.52519 14.96C3.40369 14.96 0.0625 11.619 0.0625 7.49735C0.0625 3.37579 3.40369 0.034668 7.52519 0.034668C11.6468 0.034668 14.9879 3.37579 14.9879 7.49735Z" fill="#1BA27A"/>
<path d="M11.0274 3.79779H3.96094V5.50376H6.64116V8.01122H8.34713V5.50376H11.0274V3.79779Z" fill="white"/>
<path d="M7.50791 8.27837C5.29075 8.27837 3.49321 7.92747 3.49321 7.49456C3.49321 7.06173 5.29067 6.71076 7.50791 6.71076C9.72507 6.71076 11.5225 7.06173 11.5225 7.49456C11.5225 7.92747 9.72507 8.27837 7.50791 8.27837ZM12.0157 7.62523C12.0157 7.06703 9.99754 6.61456 7.50791 6.61456C5.01836 6.61456 3 7.06703 3 7.62523C3 8.1168 4.565 8.52635 6.63881 8.6171V12.2167H8.34463V8.61852C10.4344 8.53061 12.0157 8.11934 12.0157 7.62523Z" fill="white"/>
</g>
<defs>
<clipPath id="clip0_6225_8640">
<rect width="15" height="15" fill="white"/>
</clipPath>
</defs>
</svg>
