<svg width="15" height="15" viewBox="0 0 15 15" fill="none" xmlns="http://www.w3.org/2000/svg">
<g clip-path="url(#clip0_4412_5899)">
<circle opacity="0.05" cx="7.5" cy="7.5" r="7.5" fill="white"/>
<path d="M12.2302 3.14804L11.8184 3.5599C12.8011 4.63463 13.3461 6.03823 13.3461 7.49455C13.3461 8.95087 12.8011 10.3545 11.8184 11.4292L12.2302 11.8411C13.3232 10.6556 13.93 9.10218 13.93 7.48975C13.93 5.87731 13.3232 4.32393 12.2302 3.13843V3.14804Z" fill="#5A5564"/>
<path d="M3.56991 3.18374C4.64464 2.20097 6.04824 1.65597 7.50456 1.65597C8.96088 1.65597 10.3645 2.20097 11.4392 3.18374L11.8511 2.77188C10.6656 1.67894 9.11219 1.07214 7.49976 1.07214C5.88732 1.07214 4.33394 1.67894 3.14844 2.77188L3.56991 3.18374Z" fill="#5A5564"/>
<path d="M3.18386 11.4333C2.20226 10.3588 1.65798 8.95606 1.65798 7.5007C1.65798 6.04534 2.20226 4.6426 3.18386 3.56811L2.772 3.15625C1.67906 4.34175 1.07227 5.89514 1.07227 7.50757C1.07227 9.12 1.67906 10.6734 2.772 11.8589L3.18386 11.4333Z" fill="#5A5564"/>
<path d="M11.4335 11.8136C10.3588 12.7964 8.95518 13.3414 7.49886 13.3414C6.04253 13.3414 4.63893 12.7964 3.56421 11.8136L3.15234 12.2255C4.33784 13.3184 5.89123 13.9252 7.50366 13.9252C9.11609 13.9252 10.6695 13.3184 11.855 12.2255L11.4335 11.8136Z" fill="#5A5564"/>
<path d="M10.1011 6.12579C10.0187 5.26637 9.27733 4.97807 8.33966 4.8902V3.70679H7.61479V4.86824C7.42396 4.86824 7.22901 4.86824 7.03543 4.86824V3.70679H6.31605V4.89844H4.8457V5.67411C4.8457 5.67411 5.38112 5.6645 5.37289 5.67411C5.46943 5.66349 5.56632 5.69076 5.64315 5.75018C5.71998 5.80959 5.77074 5.89651 5.78475 5.99262V9.25456C5.78268 9.28846 5.77385 9.32159 5.75875 9.35201C5.74366 9.38243 5.72262 9.40952 5.69688 9.43166C5.67163 9.45423 5.64207 9.47146 5.60998 9.48231C5.57789 9.49317 5.54394 9.49742 5.51017 9.49482C5.51978 9.50305 4.98299 9.49482 4.98299 9.49482L4.8457 10.3611H6.30232V11.572H7.0272V10.3789H7.60655V11.5665H8.3328V10.3693C9.5574 10.2952 10.4113 9.99317 10.5184 8.84682C10.6049 7.92425 10.1711 7.51239 9.47777 7.34627C9.89924 7.13897 10.1601 6.75456 10.1011 6.12579ZM9.08513 8.70404C9.08513 9.60465 7.54202 9.50168 7.05054 9.50168V7.90366C7.54202 7.90503 9.08513 7.76362 9.08513 8.70404ZM8.74878 6.45253C8.74878 7.27625 7.46102 7.17604 7.05191 7.17604V5.72354C7.46102 5.72354 8.74878 5.59449 8.74878 6.45253Z" fill="#F7931A"/>
<path d="M7.49863 15C6.01539 14.9997 4.56553 14.5597 3.33237 13.7355C2.09921 12.9112 1.13813 11.7399 0.570644 10.3695C0.00315711 8.9991 -0.145252 7.49122 0.144181 6.03649C0.433614 4.58176 1.14789 3.24551 2.1967 2.1967C3.24551 1.14789 4.58176 0.433614 6.03649 0.144181C7.49122 -0.145252 8.9991 0.00315711 10.3695 0.570644C11.7399 1.13813 12.9112 2.09921 13.7355 3.33237C14.5597 4.56553 14.9997 6.01539 15 7.49863C15.0002 8.48377 14.8063 9.4593 14.4294 10.3695C14.0524 11.2797 13.4999 12.1067 12.8033 12.8033C12.1067 13.4999 11.2797 14.0524 10.3695 14.4294C9.4593 14.8063 8.48377 15.0002 7.49863 15ZM7.49863 0.584847C6.13211 0.585933 4.79658 0.992112 3.66085 1.75204C2.52511 2.51198 1.64016 3.59155 1.11784 4.85431C0.595525 6.11708 0.459286 7.50634 0.726347 8.84651C0.993408 10.1867 1.65178 11.4176 2.61825 12.3837C3.58472 13.3498 4.8159 14.0077 6.15618 14.2742C7.49646 14.5407 8.88567 14.4039 10.1482 13.8811C11.4108 13.3583 12.49 12.4729 13.2495 11.3369C14.009 10.2008 14.4146 8.86515 14.4152 7.49863C14.4155 6.59037 14.2368 5.69094 13.8894 4.85178C13.5419 4.01262 13.0324 3.25018 12.39 2.60807C11.7476 1.96596 10.985 1.45676 10.1457 1.1096C9.30639 0.762443 8.40689 0.584125 7.49863 0.584847Z" fill="#282138"/>
</g>
<defs>
<clipPath id="clip0_4412_5899">
<rect width="15" height="15" fill="white"/>
</clipPath>
</defs>
</svg>
