<svg width="15" height="15" viewBox="0 0 15 15" fill="none" xmlns="http://www.w3.org/2000/svg">
<g clip-path="url(#clip0_4702_4937)">
<path d="M7.5 15C11.6421 15 15 11.6421 15 7.5C15 3.35786 11.6421 0 7.5 0C3.35786 0 0 3.35786 0 7.5C0 11.6421 3.35786 15 7.5 15Z" fill="#FF007A"/>
<path d="M5.24781 13C7.53026 13 7.53026 12.9573 7.91749 12.8184C8.4233 12.6351 6.48855 11 5.24781 11C4.00707 11 3 11.4478 3 12.0002C3 12.5527 4.00637 13 5.24781 13Z" fill="black"/>
<path d="M10.8913 4.98392L11 5.09988L10.9051 5.22698C7.82105 9.36021 6.04422 11.2272 5.28862 10.978C4.83127 10.8251 4.37103 10.3655 3.91151 9.69842C3.74988 9.46361 3.59767 9.21659 3.4596 8.97101C3.36755 8.80729 3.28964 8.65793 3.24905 8.57392C3.20675 8.49176 3.17625 8.40414 3.15845 8.31362L3.15627 8.30321C3.14902 8.2673 3.14649 8.25474 3.14105 8.23463C2.92903 7.44429 2.95654 6.6096 3.22017 5.83465C3.4838 5.05971 3.97187 4.3788 4.62352 3.87685C5.27517 3.3749 6.06155 3.07412 6.8846 3.01203C7.70765 2.94993 8.53094 3.12926 9.25179 3.52766L9.26774 3.53772C9.85881 3.96167 10.403 4.4463 10.8913 4.98356V4.98392ZM9.05501 3.8569C8.39997 3.49785 7.65288 3.3374 6.90656 3.39547C6.16025 3.45355 5.44761 3.7276 4.85718 4.18357C4.26675 4.63954 3.82457 5.25734 3.58557 5.9602C3.34657 6.66306 3.32129 7.42 3.51287 8.13697C3.52121 8.16821 3.52519 8.1858 3.53389 8.23068V8.24002C3.54562 8.29924 3.56601 8.35645 3.59441 8.40984C3.63065 8.48667 3.70567 8.62849 3.79337 8.78539C3.92637 9.02164 4.07205 9.25896 4.22824 9.48372C4.64536 10.0862 5.05741 10.4984 5.41365 10.6168C5.88839 10.7748 7.67537 8.90064 10.4995 5.12897C10.0619 4.65834 9.57782 4.23221 9.05465 3.8569H9.05501Z" fill="black"/>
<path d="M8.5804 3.52284C7.93567 3.12607 7.20031 2.94872 6.46569 3.01281C5.73108 3.07691 5.02959 3.37964 4.44841 3.88338C3.86723 4.38712 3.43198 5.06966 3.19674 5.84618C2.9615 6.62271 2.93664 7.45898 3.12526 8.25108C3.13347 8.28559 3.13739 8.30502 3.14595 8.3546V8.36491C3.15733 8.43002 3.17716 8.49295 3.2048 8.55173C3.24047 8.6366 3.3143 8.79327 3.40062 8.9666C3.53153 9.22758 3.67491 9.48976 3.82864 9.73805C4.23883 10.404 4.64474 10.8589 4.99429 10.9898C5.46155 11.1643 7.22036 9.09392 10 4.92731C9.56964 4.40777 9.09372 3.93728 8.57933 3.52284H8.5804Z" fill="#FF007A"/>
<path d="M8.5 13C7.60998 13 6.73996 12.7361 5.99994 12.2416C5.25991 11.7471 4.68314 11.0443 4.34254 10.2221C4.00195 9.39981 3.91283 8.49501 4.08647 7.62209C4.2601 6.74918 4.68869 5.94736 5.31802 5.31802C5.94736 4.68868 6.74918 4.2601 7.62209 4.08647C8.49501 3.91283 9.39981 4.00195 10.2221 4.34254C11.0443 4.68314 11.7471 5.25991 12.2416 5.99994C12.7361 6.73996 13 7.60999 13 8.5C13 9.09095 12.8836 9.67611 12.6575 10.2221C12.4313 10.768 12.0998 11.2641 11.682 11.682C11.2641 12.0998 10.768 12.4313 10.2221 12.6575C9.67611 12.8836 9.09095 13 8.5 13ZM8.5 12.5872C9.30818 12.5875 10.0983 12.348 10.7704 11.8992C11.4425 11.4504 11.9664 10.8123 12.2758 10.0657C12.5853 9.31914 12.6664 8.49755 12.5089 7.70487C12.3514 6.91218 11.9624 6.184 11.391 5.61242C10.8196 5.04084 10.0916 4.65153 9.29899 4.49373C8.50636 4.33593 7.68474 4.41673 6.93803 4.7259C6.19132 5.03507 5.55307 5.55873 5.10399 6.23066C4.6549 6.90258 4.41516 7.69259 4.41509 8.50078C4.41499 9.58434 4.84528 10.6236 5.61132 11.3899C6.37737 12.1562 7.41644 12.5869 8.5 12.5872Z" fill="black"/>
<path d="M8 12C8.79111 12 9.56445 11.7654 10.2222 11.3259C10.88 10.8864 11.3927 10.2617 11.6955 9.53082C11.9982 8.79994 12.0775 7.99569 11.9232 7.21978C11.7689 6.44387 11.3879 5.73113 10.8286 5.17171C10.2692 4.61228 9.55649 4.23129 8.78059 4.07691C8.00469 3.92252 7.20044 4.00168 6.46953 4.30437C5.73862 4.60707 5.11388 5.1197 4.67431 5.77744C4.23473 6.43519 4.00008 7.20851 4 7.99962C3.99995 8.52494 4.10338 9.04513 4.30437 9.53047C4.50537 10.0158 4.8 10.4568 5.17144 10.8283C5.54288 11.1998 5.98385 11.4944 6.46918 11.6955C6.95451 11.8965 7.47468 12 8 12Z" fill="white"/>
<path d="M4.52353 9L4 7.0057H4.45893L4.73196 8.15147L5.03241 7H5.40608L5.70653 8.15147L5.97956 7.0057H6.43023L5.9067 9H5.53039L5.21493 7.8604L4.90209 9H4.52353ZM6.60561 8.98576V7.0057H7.8656V7.47151H7.0345V7.7716H7.78561V8.20465H7.0345V8.51852H7.87574V8.98528L6.60561 8.98576ZM8.48077 8.98576V7.4867H8.00982V7.0057H9.38511V7.4867H8.91378V8.98576H8.48077ZM9.57476 8.98576V7.0057H10.0082V7.74691H10.5655V7.0057H11V8.98576H10.5655V8.23362H10.0082V8.98576H9.57476Z" fill="black"/>
<path d="M3.09311 6.53687C3.05077 6.49745 3.02014 6.43741 3.00703 6.36817C2.99393 6.29892 2.99926 6.22528 3.02202 6.16122C3.04477 6.09717 3.08337 6.04715 3.13049 6.02068C3.1776 5.99421 3.22995 5.99311 3.2776 6.01761L3.8638 6.43253C3.89125 6.44664 3.91627 6.46881 3.93723 6.49757C3.95818 6.52634 3.97459 6.56105 3.98537 6.59942C3.99616 6.6378 4.00108 6.67896 3.9998 6.72022C3.99853 6.76147 3.99109 6.80188 3.97798 6.83878C3.96487 6.87568 3.94639 6.90824 3.92374 6.93431C3.90109 6.96038 3.8748 6.97938 3.84659 6.99006C3.81838 7.00073 3.78889 7.00284 3.76006 6.99624C3.73123 6.98965 3.70371 6.9745 3.67932 6.95179L3.09311 6.53687Z" fill="black"/>
<path d="M3.13775 7.58985C3.1106 7.57558 3.08577 7.55324 3.06484 7.52424C3.04392 7.49524 3.02735 7.46021 3.01619 7.42138C3.00504 7.38254 2.99953 7.34075 3.00003 7.29865C3.00053 7.25655 3.00702 7.21506 3.01909 7.17681C3.03116 7.13856 3.04855 7.10439 3.07015 7.07646C3.09175 7.04853 3.11709 7.02746 3.14457 7.01458C3.17205 7.00169 3.20106 6.99728 3.22977 7.00162C3.25848 7.00596 3.28626 7.01895 3.31134 7.03978L3.90155 7.43789C3.94475 7.47702 3.97665 7.53784 3.99124 7.6089C4.00583 7.67996 4.0021 7.75635 3.98076 7.82367C3.95941 7.891 3.92192 7.94461 3.87536 7.97441C3.8288 8.0042 3.77637 8.00812 3.72796 7.98543L3.13775 7.58985Z" fill="black"/>
</g>
<defs>
<clipPath id="clip0_4702_4937">
<rect width="15" height="15" fill="white"/>
</clipPath>
</defs>
</svg>
