<svg width="400" height="400" viewBox="0 0 400 400" fill="none" xmlns="http://www.w3.org/2000/svg">
<rect width="400" height="400" fill="#030A21"/>
<path d="M321.675 324.996H270.184C269.379 324.995 268.607 324.677 268.037 324.11C267.468 323.543 267.148 322.774 267.148 321.973V239.887C267.148 236.957 271.016 235.873 272.552 238.372L323.659 321.479C323.874 321.829 323.992 322.23 324 322.641C324.007 323.052 323.905 323.457 323.703 323.816C323.501 324.174 323.206 324.472 322.85 324.679C322.494 324.887 322.088 324.996 321.675 324.996Z" fill="white"/>
<path d="M251.267 210.128V322.038C251.267 322.426 251.19 322.811 251.04 323.17C250.891 323.529 250.672 323.855 250.395 324.13C250.119 324.405 249.791 324.623 249.43 324.771C249.069 324.92 248.683 324.996 248.292 324.996H211.731C211.34 324.996 210.954 324.92 210.593 324.771C210.232 324.622 209.905 324.404 209.628 324.13C209.352 323.855 209.133 323.529 208.984 323.17C208.834 322.811 208.758 322.426 208.758 322.038L211.504 159.167C211.504 156.088 215.477 154.826 217.269 157.336L250.488 207.702C250.995 208.41 251.267 209.258 251.267 210.128Z" fill="white"/>
<path d="M191.324 238.204V322.152C191.324 322.906 191.023 323.629 190.487 324.163C189.951 324.696 189.224 324.996 188.466 324.996H147.613C147.237 324.996 146.866 324.922 146.519 324.78C146.172 324.637 145.857 324.427 145.592 324.163C145.326 323.899 145.116 323.585 144.973 323.24C144.829 322.895 144.755 322.525 144.755 322.152V203.851C144.755 201.223 147.86 199.811 149.86 201.523L190.459 236.33C190.73 236.562 190.948 236.849 191.097 237.173C191.246 237.496 191.324 237.848 191.324 238.204Z" fill="white"/>
<path d="M129.091 242.436L126.038 321.134C125.998 322.172 125.555 323.155 124.802 323.876C124.05 324.597 123.046 325 122.001 325H78.3945C77.9743 325 77.5614 324.89 77.1975 324.681C76.8335 324.472 76.5312 324.171 76.321 323.809C76.1108 323.447 76.0001 323.036 76 322.618C75.9999 322.2 76.1104 321.789 76.3204 321.427L123.128 240.728C124.797 237.849 129.22 239.119 129.091 242.436Z" fill="white"/>
<path d="M199.776 111.888L191.726 207.885C191.726 208.228 191.628 208.564 191.442 208.854C191.256 209.143 190.991 209.374 190.678 209.519C190.364 209.664 190.015 209.717 189.673 209.672C189.33 209.626 189.007 209.485 188.743 209.264L148.492 175.642C148.04 175.265 147.511 174.99 146.94 174.838C146.37 174.686 145.773 174.659 145.191 174.761C144.61 174.862 144.058 175.089 143.574 175.425C143.09 175.761 142.686 176.199 142.391 176.706L125.883 205.082L105.522 240.587C105.02 241.462 103.683 240.813 104.069 239.882L142.725 146.72C142.981 146.102 143.387 145.557 143.906 145.132C144.426 144.707 145.043 144.417 145.702 144.286C146.362 144.155 147.044 144.188 147.688 144.382C148.332 144.576 148.918 144.924 149.393 145.397L173.163 172.093C174.762 173.68 177.501 172.762 177.803 170.542L193.408 79.951C194.61 73.1521 202.448 74.3187 204.444 77.7205L228.901 145.321C229.314 146.026 228.336 146.71 227.806 146.086L206.102 109.597C203.949 107.057 199.776 108.568 199.776 111.888Z" fill="#6988FF"/>
</svg>
