<svg width="20" height="11" viewBox="0 0 20 11" fill="none" xmlns="http://www.w3.org/2000/svg">
<path d="M19.7044 0.738942C19.6115 0.644199 19.5009 0.568999 19.3791 0.517681C19.2573 0.466362 19.1267 0.439941 18.9948 0.439941C18.8628 0.439941 18.7322 0.466362 18.6104 0.517681C18.4886 0.568999 18.3781 0.644199 18.2852 0.738942L11.9988 7.10716L7.71133 2.7606C7.61842 2.66585 7.50788 2.59065 7.38609 2.53934C7.2643 2.48802 7.13367 2.4616 7.00174 2.4616C6.8698 2.4616 6.73917 2.48802 6.61738 2.53934C6.4956 2.59065 6.38506 2.66585 6.29215 2.7606L0.295627 8.82556C0.201953 8.91953 0.127602 9.03133 0.0768624 9.15451C0.0261232 9.27769 0 9.40981 0 9.54325C0 9.67669 0.0261232 9.80881 0.0768624 9.93199C0.127602 10.0552 0.201953 10.167 0.295627 10.2609C0.388536 10.3557 0.499073 10.4309 0.620862 10.4822C0.74265 10.5335 0.87328 10.5599 1.00522 10.5599C1.13715 10.5599 1.26778 10.5335 1.38957 10.4822C1.51136 10.4309 1.62189 10.3557 1.7148 10.2609L7.00174 4.90355L11.2893 9.25011C11.3822 9.34485 11.4927 9.42005 11.6145 9.47137C11.7363 9.52269 11.8669 9.54911 11.9988 9.54911C12.1308 9.54911 12.2614 9.52269 12.3832 9.47137C12.505 9.42005 12.6155 9.34485 12.7084 9.25011L19.7044 2.17432C19.798 2.08035 19.8724 1.96855 19.9231 1.84537C19.9739 1.72219 20 1.59007 20 1.45663C20 1.32319 19.9739 1.19107 19.9231 1.06789C19.8724 0.944711 19.798 0.832912 19.7044 0.738942Z" fill="#6988FF"/>
</svg>
