<svg width="20" height="20" viewBox="0 0 20 20" fill="none" xmlns="http://www.w3.org/2000/svg">
<rect x="2.28564" y="3.42856" width="13.1429" height="4" fill="#233059"/>
<circle cx="14.857" cy="11.4286" r="2.28571" fill="#233059"/>
<path d="M16.75 5.27421H2.6875V4.70231L15.0625 3.69575V5.27373L16.75 5.27421V2.98658C16.75 1.72838 15.7476 0.845359 14.5236 1.02265L3.2275 2.66288C2.00238 2.84132 1 4.01602 1 5.27421V16.7124C1 17.3191 1.23705 17.901 1.65901 18.33C2.08097 18.759 2.65326 19 3.25 19H16.75C17.3467 19 17.919 18.759 18.341 18.33C18.7629 17.901 19 17.3191 19 16.7124V7.56184C19 6.95513 18.7629 6.37326 18.341 5.94424C17.919 5.51523 17.3467 5.27421 16.75 5.27421ZM15.0625 13.2878C14.8408 13.2877 14.6213 13.2432 14.4165 13.1569C14.2118 13.0706 14.0257 12.9441 13.869 12.7847C13.7123 12.6253 13.588 12.436 13.5033 12.2278C13.4185 12.0195 13.3749 11.7963 13.375 11.5709C13.3751 11.3455 13.4188 11.1224 13.5037 10.9142C13.5886 10.706 13.713 10.5168 13.8698 10.3575C14.0266 10.1982 14.2128 10.0718 14.4176 9.98562C14.6224 9.89944 14.8419 9.85512 15.0636 9.85519C15.5113 9.85535 15.9406 10.0363 16.2571 10.3583C16.5736 10.6803 16.7513 11.1169 16.7511 11.5721C16.751 12.0273 16.573 12.4637 16.2563 12.7855C15.9396 13.1073 15.5102 13.2879 15.0625 13.2878Z" fill="#6988FF"/>
</svg>
