<svg width="34" height="17" viewBox="0 0 34 17" fill="none" xmlns="http://www.w3.org/2000/svg">
<path d="M25.6346 9.22222H26.75V14.7778H25.6346V9.22222Z" fill="white"/>
<path d="M25.6346 8.11111C25.6346 7.8043 25.8843 7.55556 26.1923 7.55556C26.5003 7.55556 26.75 7.8043 26.75 8.11111C26.75 8.41793 26.5003 8.66667 26.1923 8.66667C25.8843 8.66667 25.6346 8.41793 25.6346 8.11111Z" fill="white"/>
<path d="M27.8654 12C27.8654 10.4659 28.9808 9.22222 30.9327 9.22222C32.3269 9.22222 33.6604 10.018 33.9995 11.1369L32.909 11.4279C32.6312 10.6888 31.6471 10.3333 30.9327 10.3333C29.974 10.3333 28.9808 10.8889 28.9808 12C28.9808 13.1111 29.974 13.6667 30.9327 13.6667C31.6471 13.6667 32.6324 13.2825 32.9096 12.5423L34 12.8333C33.6614 13.953 32.3269 14.7778 30.9327 14.7778C28.9808 14.7778 27.8654 13.5341 27.8654 12Z" fill="white"/>
<path fill-rule="evenodd" clip-rule="evenodd" d="M22.2885 17C23.5171 17 24.5137 16.0106 24.5192 14.7879C24.5171 14.3084 24.3624 13.8576 24.1011 13.4954C24.3756 13.0637 24.5192 12.5506 24.5192 12C24.5192 10.4659 23.4038 9.22222 21.4519 9.22222C19.5 9.22222 18.3846 10.4659 18.3846 12C18.3846 13.5341 19.5 14.7778 21.4519 14.7778C22.188 14.7778 22.8052 14.6009 23.2884 14.2983C23.3619 14.446 23.4034 14.6018 23.4038 14.7778C23.3982 15.3866 22.901 15.8889 22.2885 15.8889H19.2405L18.9423 16.9976L22.2885 17ZM21.4519 10.3333C20.5279 10.3333 19.5 10.8889 19.5 12C19.5 13.1111 20.5279 13.6667 21.4519 13.6667C22.3759 13.6667 23.4038 13.1111 23.4038 12C23.4038 10.8889 22.3759 10.3333 21.4519 10.3333Z" fill="white"/>
<path d="M5 7H6.11538V10.3333H9.46154V7H10.5769V14.7778H9.46154V11.4444H6.11538V14.7778H5V7Z" fill="white"/>
<path fill-rule="evenodd" clip-rule="evenodd" d="M11.6923 12C11.6923 10.4659 12.8077 9.22222 14.7596 9.22222C16.1538 9.22222 17.6828 10.3138 17.8136 11.7132L13.1377 12.9634C13.5153 13.4323 14.1594 13.6667 14.7596 13.6667C15.3723 13.6667 16.0307 13.4224 16.4047 12.9339L17.7735 12.5686C17.5301 13.83 16.1538 14.7778 14.7596 14.7778C12.8077 14.7778 11.6923 13.5341 11.6923 12ZM14.7596 10.3333C15.5962 10.3333 16.1538 10.6111 16.3192 10.9639L12.8105 11.9004C12.87 10.8557 13.9231 10.3333 14.7596 10.3333Z" fill="white"/>
<path d="M25 5.6L28.2143 2.8V4.2L25 7V5.6Z" fill="#0CC09C"/>
<path d="M29.5 3.92L34 0L29.5 5.32V3.92Z" fill="#0CC09C"/>
<path d="M28.2143 2.8L29.5 3.92V5.32L28.2143 4.2V2.8Z" fill="#0CC09C"/>
</svg>
