<svg width="37" height="17" viewBox="0 0 37 17" fill="none" xmlns="http://www.w3.org/2000/svg">
<g clip-path="url(#clip0_0_3)">
<path fill-rule="evenodd" clip-rule="evenodd" d="M0 9.49503C0.166975 9.73792 0.483693 9.97739 1.34672 9.97621H9.74273C10.0681 9.97621 10.4351 10.1996 10.564 10.4769L11.9562 13.4982C12.0839 13.7754 11.923 14 11.5977 14H2.99303C2.48108 13.9702 2.006 13.8465 1.78626 13.3699L0 9.49503ZM7.21985 3.24511L8.62801 6.30419C8.75565 6.58257 8.67585 6.9836 8.44872 7.2013L6.40719 9.19601H1.76539C1.03 9.204 0.594206 8.94395 1.21908 8.31032L6.57903 3.13623C6.80493 2.91858 7.09221 2.96667 7.21985 3.24511Z" fill="url(#paint0_linear_0_3)"/>
<path d="M21.325 11.9686H16V4H17.6409V10.5588H21.325V11.9686Z" fill="white"/>
<path d="M27.1418 6.13104L24.8198 12.3014C24.5887 12.9228 24.3018 13.361 23.959 13.6168C23.6168 13.8721 23.1666 14 22.6085 14C22.4894 14 22.3911 13.9977 22.3129 13.9935C22.2348 13.9899 22.1287 13.9809 21.9951 13.9663V12.7118C22.1072 12.7195 22.1999 12.7251 22.2739 12.7286C22.3484 12.7328 22.4044 12.7351 22.4418 12.7351C22.6649 12.7351 22.8358 12.694 22.955 12.6121C23.0738 12.5309 23.1704 12.394 23.2453 12.2017L23.4355 11.7356L21.3258 6.13104H22.9445L24.2729 9.97097L25.5673 6.13104H27.1418Z" fill="white"/>
<path d="M30.7481 6.09735C30.8003 6.09735 30.854 6.09928 30.9097 6.10251C30.965 6.10612 31.0376 6.11159 31.1271 6.11935V7.64057C31.0229 7.62504 30.9334 7.61565 30.8588 7.61211C30.785 7.60888 30.7068 7.60695 30.6244 7.60695C30.1927 7.60695 29.8447 7.73317 29.58 7.98497C29.316 8.23616 29.1841 8.57633 29.1841 9.00519V11.9686H27.6214V6.13104H29.1841V6.95183C29.3186 6.68511 29.5253 6.47637 29.804 6.32524C30.0833 6.17342 30.3981 6.09735 30.7481 6.09735Z" fill="white"/>
<path d="M35.1469 11.4249C34.9532 11.6321 34.7073 11.7913 34.4098 11.9026C34.1119 12.013 33.7769 12.0683 33.4044 12.0683C32.8164 12.0683 32.3365 11.9097 31.9641 11.5919C31.5923 11.2734 31.4067 10.8588 31.4067 10.3477C31.4067 9.84475 31.5793 9.43982 31.925 9.13333C32.2714 8.82615 32.8053 8.60964 33.5268 8.48343L34.9906 8.20639V8.11703C34.9906 7.84353 34.9157 7.64026 34.7666 7.50727C34.6181 7.37354 34.3909 7.30655 34.0855 7.30655C33.8022 7.30655 33.5789 7.36969 33.4148 7.49559C33.2514 7.62181 33.1365 7.81762 33.0697 8.08335L31.5851 7.80631C31.7335 7.26609 32.0363 6.83339 32.4941 6.50775C32.9525 6.18249 33.5014 6.01967 34.1415 6.01967C34.9079 6.01967 35.4959 6.1938 35.9048 6.54143C36.3144 6.88938 36.5195 7.39268 36.5195 8.05103V10.437C36.5195 10.5924 36.5563 10.6982 36.6302 10.7543C36.7048 10.8096 36.8281 10.8261 37 10.8034V11.9686C36.5155 12.035 36.1187 12.0237 35.8097 11.935C35.5015 11.8463 35.2804 11.6761 35.1469 11.4249ZM33.717 10.8915C34.0816 10.8915 34.385 10.7992 34.6272 10.6145C34.8695 10.43 34.9906 10.1895 34.9906 9.89329V9.29391L33.8407 9.52695C33.5203 9.58648 33.2911 9.67547 33.1531 9.79361C33.0157 9.91205 32.9473 10.0674 32.9473 10.2597C32.9473 10.4591 33.0157 10.6145 33.1531 10.7258C33.2911 10.8364 33.4789 10.8915 33.717 10.8915Z" fill="white"/>
</g>
<defs>
<linearGradient id="paint0_linear_0_3" x1="11.2957" y1="5.28763" x2="3.30342" y2="16.3013" gradientUnits="userSpaceOnUse">
<stop stop-color="#63E1D6"/>
<stop offset="1" stop-color="#17B89B"/>
</linearGradient>
<clipPath id="clip0_0_3">
<rect width="37" height="11" fill="white" transform="translate(0 3)"/>
</clipPath>
</defs>
</svg>
