<svg width="20" height="20" viewBox="0 0 20 20" fill="none" xmlns="http://www.w3.org/2000/svg">
<path d="M1 5.75556V14.2444C1 14.7847 1.29221 15.2851 1.76873 15.5552L9.23127 19.7974C9.70779 20.0675 10.2922 20.0675 10.7687 19.7974L18.2313 15.5552C18.7078 15.2851 19 14.7847 19 14.2444V5.75556C19 5.21532 18.7078 4.71493 18.2313 4.44481L10.7687 0.20259C10.2922 -0.0675301 9.70779 -0.0675301 9.23127 0.20259L1.76873 4.44481C1.2967 4.71493 1 5.21532 1 5.75556Z" fill="#213147"/>
<path d="M11.4882 11.7721L10.5826 14.3071C10.5558 14.3774 10.5558 14.4556 10.5826 14.5259L12.1378 18.8889L13.9375 17.8265L11.7786 11.7721C11.7289 11.6315 11.5378 11.6315 11.4882 11.7721Z" fill="#12AAFF"/>
<path d="M13.5027 6.77795C13.4515 6.62957 13.2547 6.62957 13.2035 6.77795L12.2707 9.4529C12.2431 9.52709 12.2431 9.60953 12.2707 9.68372L14.8961 17.2222L16.75 16.1011L13.5027 6.77795Z" fill="#12AAFF"/>
<path d="M10 1.23952C10.0499 1.23952 10.0956 1.25179 10.1413 1.27633L17.6039 5.51851C17.6911 5.5676 17.7452 5.6576 17.7452 5.75578V14.2401C17.7452 14.3383 17.6911 14.4283 17.6039 14.4774L10.1413 18.7237C10.0997 18.7482 10.0499 18.7605 10 18.7605C9.95014 18.7605 9.90443 18.7482 9.85873 18.7237L2.40028 14.4815C2.31302 14.4324 2.259 14.3424 2.259 14.2442V5.75578C2.259 5.6576 2.31302 5.5676 2.40028 5.51851L9.86288 1.27633C9.90443 1.25179 9.95429 1.23952 10 1.23952ZM10 1.1399e-09C9.73407 1.1399e-09 9.46814 0.0695439 9.2313 0.204541L1.7687 4.44672C1.29501 4.71671 1 5.21557 1 5.75556V14.2401C1 14.7801 1.29501 15.2833 1.7687 15.5533L9.2313 19.7955C9.46814 19.9305 9.73407 20 10 20C10.2659 20 10.5319 19.9305 10.7687 19.7955L18.2313 15.5533C18.7091 15.2833 19 14.7842 19 14.2401V5.75556C19 5.21557 18.705 4.71262 18.2313 4.44263L10.7729 0.204541C10.5319 0.0695439 10.2659 1.1399e-09 10 1.1399e-09Z" fill="#9DCCED"/>
<path d="M4.9375 17.3492L5.68448 15.5556L7.1875 16.6508L5.78408 17.7778L4.9375 17.3492Z" fill="#213147"/>
<path d="M9.27264 5H7.45426C7.31838 5 7.19449 5.08553 7.15053 5.21585L3.25 16.1144L5.13233 17.2222L9.4285 5.21993C9.46447 5.11404 9.38854 5 9.27264 5Z" fill="white"/>
<path d="M12.65 5H10.829C10.6929 5 10.5689 5.08627 10.5248 5.21772L6.0625 17.7715L7.94749 18.8889L12.802 5.22594C12.8421 5.11502 12.762 5 12.65 5Z" fill="white"/>
</svg>
