<svg width="30" height="30" viewBox="0 0 30 30" fill="none" xmlns="http://www.w3.org/2000/svg">
<g clip-path="url(#clip0_5158_3533)">
<rect width="30" height="30" rx="5" fill="#181A3C"/>
<rect x="0.5" y="0.5" width="29" height="29" rx="4.5" stroke="url(#paint0_linear_5158_3533)" stroke-opacity="0.7"/>
<path d="M20.6981 10.9123C19.7418 10.4907 18.7169 10.179 17.645 10.0018C17.6355 10 17.6256 10.0012 17.6167 10.0051C17.6079 10.009 17.6005 10.0156 17.5956 10.0238C17.4644 10.2493 17.3182 10.5432 17.2157 10.7754C16.0789 10.6094 14.9232 10.6094 13.7864 10.7754C13.6722 10.5181 13.5435 10.2671 13.4008 10.0238C13.3959 10.0155 13.3886 10.0088 13.3798 10.0047C13.371 10.0005 13.3611 9.99908 13.3514 10.0006C12.2802 10.1778 11.2552 10.4894 10.2984 10.9117C10.2901 10.9151 10.2831 10.9208 10.2784 10.9282C8.33342 13.7238 7.80031 16.4504 8.06217 19.1428C8.0629 19.1494 8.065 19.1558 8.06833 19.1616C8.07166 19.1673 8.07616 19.1724 8.08155 19.1764C9.21676 19.9845 10.4829 20.6001 11.8271 20.9974C11.8364 21.0002 11.8465 21.0002 11.8558 20.9974C11.8652 20.9946 11.8735 20.989 11.8796 20.9815C12.1688 20.6033 12.4251 20.2021 12.6458 19.782C12.6489 19.7762 12.6506 19.7699 12.651 19.7635C12.6513 19.757 12.6502 19.7505 12.6478 19.7445C12.6454 19.7385 12.6417 19.733 12.6369 19.7285C12.6321 19.724 12.6264 19.7206 12.6202 19.7184C12.2164 19.5698 11.8252 19.3904 11.4502 19.1819C11.4435 19.1782 11.4378 19.1728 11.4337 19.1664C11.4296 19.16 11.4272 19.1526 11.4267 19.145C11.4262 19.1375 11.4276 19.1299 11.4308 19.123C11.4341 19.1161 11.439 19.1101 11.4452 19.1055C11.5239 19.0487 11.6027 18.9894 11.6777 18.9302C11.6844 18.9248 11.6926 18.9214 11.7012 18.9204C11.7098 18.9193 11.7185 18.9206 11.7264 18.9241C14.1807 20.002 16.8388 20.002 19.2643 18.9241C19.2723 18.9204 19.2811 18.9189 19.2898 18.9199C19.2986 18.9208 19.3068 18.9242 19.3137 18.9295C19.3887 18.9894 19.4668 19.0487 19.5462 19.1055C19.5525 19.11 19.5575 19.1159 19.5608 19.1228C19.5642 19.1296 19.5657 19.1371 19.5653 19.1447C19.565 19.1523 19.5627 19.1596 19.5587 19.1661C19.5547 19.1726 19.5491 19.1781 19.5425 19.1819C19.1687 19.3921 18.78 19.57 18.3719 19.7178C18.3656 19.7201 18.3599 19.7236 18.3551 19.7281C18.3504 19.7327 18.3466 19.7382 18.3442 19.7442C18.3418 19.7503 18.3407 19.7568 18.3411 19.7633C18.3414 19.7698 18.3432 19.7762 18.3463 19.782C18.5712 20.2018 18.8287 20.6014 19.1119 20.9809C19.1177 20.9887 19.1259 20.9945 19.1353 20.9976C19.1447 21.0006 19.1549 21.0008 19.1644 20.998C20.5108 20.6018 21.779 19.986 22.9155 19.1764C22.921 19.1726 22.9257 19.1677 22.9291 19.162C22.9326 19.1563 22.9348 19.15 22.9355 19.1434C23.248 16.0306 22.4118 13.326 20.7174 10.9294C20.7133 10.9216 20.7064 10.9155 20.6981 10.9123ZM13.0127 17.5033C12.2739 17.5033 11.6646 16.8501 11.6646 16.049C11.6646 15.2472 12.2621 14.5946 13.0127 14.5946C13.7689 14.5946 14.3726 15.2527 14.3607 16.049C14.3607 16.8507 13.7633 17.5033 13.0127 17.5033ZM17.9969 17.5033C17.2575 17.5033 16.6488 16.8501 16.6488 16.049C16.6488 15.2472 17.2457 14.5946 17.9969 14.5946C18.7531 14.5946 19.3568 15.2527 19.345 16.049C19.345 16.8507 18.7537 17.5033 17.9969 17.5033Z" fill="#6988FF"/>
</g>
<defs>
<linearGradient id="paint0_linear_5158_3533" x1="-6.9553e-08" y1="-0.356436" x2="24.8833" y2="33.7347" gradientUnits="userSpaceOnUse">
<stop stop-color="#384263" stop-opacity="0.25"/>
<stop offset="1" stop-color="#384263" stop-opacity="0.15"/>
</linearGradient>
<clipPath id="clip0_5158_3533">
<rect width="30" height="30" rx="3" fill="white"/>
</clipPath>
</defs>
</svg>
