<svg width="30" height="30" viewBox="0 0 30 30" fill="none" xmlns="http://www.w3.org/2000/svg">
<rect width="30" height="30" rx="3" fill="#181A3C"/>
<path d="M19.8681 8.40765C18.6641 7.5429 17.2307 7.05453 15.7492 7.00431C14.2676 6.95408 12.8044 7.34425 11.5447 8.12548C10.2849 8.90671 9.2851 10.0439 8.67172 11.3933C8.05834 12.7426 7.85893 14.2436 8.09869 15.7063C8.33845 17.1689 9.00663 18.5277 10.0187 19.6107C11.0308 20.6937 12.3413 21.4523 13.7847 21.7905C15.2279 22.1288 16.7391 22.0315 18.1271 21.5111C19.5151 20.9906 20.7176 20.0703 21.5825 18.8665C22.1567 18.0672 22.5679 17.1626 22.7926 16.2045C23.0172 15.2463 23.0509 14.2532 22.8917 13.282C22.7325 12.3108 22.3835 11.3805 21.8647 10.5442C21.3459 9.70782 20.6675 8.98183 19.8681 8.40765Z" fill="#344786"/>
<path d="M9.30481 18.7214C9.30481 18.7214 14.2577 17.0991 22.987 14.2528C22.987 14.2528 23.4651 18.914 18.6328 21.3453C18.6328 21.3453 16.2499 22.4873 13.6357 21.7547C13.6357 21.7547 11.0325 21.2634 9.30481 18.7214Z" fill="#6988FF"/>
<rect x="0.5" y="0.5" width="29" height="29" rx="2.5" stroke="url(#paint0_linear_7664_10833)" stroke-opacity="0.7"/>
<defs>
<linearGradient id="paint0_linear_7664_10833" x1="-6.9553e-08" y1="-0.356436" x2="24.8833" y2="33.7347" gradientUnits="userSpaceOnUse">
<stop stop-color="#384263" stop-opacity="0.25"/>
<stop offset="1" stop-color="#384263" stop-opacity="0.15"/>
</linearGradient>
</defs>
</svg>
