<svg width="30" height="30" viewBox="0 0 30 30" fill="none" xmlns="http://www.w3.org/2000/svg">
<g clip-path="url(#clip0_5158_3545)">
<rect width="30" height="30" rx="5" fill="#181A3C"/>
<rect x="0.5" y="0.5" width="29" height="29" rx="4.5" stroke="url(#paint0_linear_5158_3545)" stroke-opacity="0.7"/>
<path d="M13.7517 18.7509C13.986 18.7509 14.1969 18.9327 14.1969 19.1825C14.1969 19.4097 14.0095 19.6141 13.7517 19.6141C13.5174 19.6141 13.3065 19.4324 13.3065 19.1825C13.3065 18.9327 13.5174 18.7509 13.7517 18.7509ZM20.6409 16.116C20.4066 16.116 20.1957 15.9343 20.1957 15.6844C20.1957 15.4573 20.3831 15.2528 20.6409 15.2528C20.8752 15.2528 21.0861 15.4345 21.0861 15.6844C21.0861 15.9116 20.8752 16.116 20.6409 16.116ZM20.6409 14.3669C19.8911 14.3669 19.2818 14.9575 19.2818 15.6844C19.2818 15.8207 19.3052 15.957 19.3521 16.0933L14.8765 18.4102C14.6187 18.0468 14.1969 17.8423 13.7517 17.8423C13.2362 17.8423 12.7675 18.1376 12.5332 18.5692L8.50278 16.5249C8.08099 16.2977 7.75293 15.639 7.7998 15.003C7.82323 14.6849 7.94039 14.4351 8.10442 14.3442C8.22158 14.2761 8.33875 14.2988 8.50278 14.3669L8.52621 14.3897C9.60411 14.9348 13.0956 16.7066 13.2362 16.7747C13.4705 16.8656 13.5877 16.911 13.986 16.7293L21.2033 13.0949C21.3205 13.0495 21.4376 12.9586 21.4376 12.7996C21.4376 12.5952 21.2267 12.5043 21.2267 12.5043C20.8049 12.3226 20.1723 12.0273 19.563 11.7547C18.2508 11.1641 16.7511 10.4827 16.095 10.1419C15.5326 9.84664 15.0639 10.0965 14.9936 10.1419L14.8296 10.2101C11.8536 11.6638 7.91696 13.5492 7.68263 13.6855C7.28428 13.9126 7.02652 14.3896 7.00308 14.9802C6.95622 15.9116 7.4483 16.8883 8.15129 17.229L12.416 19.3642C12.5098 20.0003 13.0956 20.5 13.7517 20.5C14.5015 20.5 15.0874 19.9321 15.1108 19.2052L19.7973 16.752C20.0317 16.9337 20.3363 17.0246 20.6409 17.0246C21.3908 17.0246 22 16.434 22 15.7071C22 14.9575 21.3908 14.3669 20.6409 14.3669Z" fill="#6988FF"/>
</g>
<defs>
<linearGradient id="paint0_linear_5158_3545" x1="-6.9553e-08" y1="-0.356436" x2="24.8833" y2="33.7347" gradientUnits="userSpaceOnUse">
<stop stop-color="#384263" stop-opacity="0.25"/>
<stop offset="1" stop-color="#384263" stop-opacity="0.15"/>
</linearGradient>
<clipPath id="clip0_5158_3545">
<rect width="30" height="30" rx="3" fill="white"/>
</clipPath>
</defs>
</svg>
