<svg width="30" height="30" viewBox="0 0 30 30" fill="none" xmlns="http://www.w3.org/2000/svg">
<g clip-path="url(#clip0_5158_3539)">
<rect width="30" height="30" rx="5" fill="#181A3C"/>
<rect x="0.5" y="0.5" width="29" height="29" rx="4.5" stroke="url(#paint0_linear_5158_3539)" stroke-opacity="0.7"/>
<path fill-rule="evenodd" clip-rule="evenodd" d="M15.5 8C11.3562 8 8 11.4411 8 15.6897C8 19.0924 10.1469 21.9664 13.1281 22.9853C13.5031 23.0526 13.6437 22.8219 13.6437 22.62C13.6437 22.4374 13.6344 21.8319 13.6344 21.1878C11.75 21.5435 11.2625 20.7168 11.1125 20.2843C11.0281 20.0632 10.6625 19.3808 10.3438 19.1981C10.0812 19.0539 9.70625 18.6983 10.3344 18.6887C10.925 18.6791 11.3469 19.2462 11.4875 19.4769C12.1625 20.64 13.2406 20.3131 13.6719 20.1113C13.7375 19.6115 13.9344 19.275 14.15 19.0828C12.4812 18.8905 10.7375 18.2273 10.7375 15.286C10.7375 14.4497 11.0281 13.7577 11.5063 13.2194C11.4313 13.0271 11.1687 12.2389 11.5812 11.1816C11.5812 11.1816 12.2094 10.9798 13.6437 11.9698C14.2437 11.7968 14.8812 11.7103 15.5187 11.7103C16.1562 11.7103 16.7937 11.7968 17.3938 11.9698C18.8281 10.9701 19.4563 11.1816 19.4563 11.1816C19.8688 12.2389 19.6062 13.0271 19.5312 13.2194C20.0094 13.7577 20.3 14.4401 20.3 15.286C20.3 18.2369 18.5469 18.8905 16.8781 19.0828C17.15 19.3231 17.3844 19.7845 17.3844 20.5054C17.3844 21.5339 17.375 22.3605 17.375 22.62C17.375 22.8219 17.5156 23.0622 17.8906 22.9853C19.3795 22.4699 20.6732 21.4888 21.5898 20.1801C22.5063 18.8714 22.9996 17.3009 23 15.6897C23 11.4411 19.6438 8 15.5 8Z" fill="#6988FF"/>
</g>
<defs>
<linearGradient id="paint0_linear_5158_3539" x1="-6.9553e-08" y1="-0.356436" x2="24.8833" y2="33.7347" gradientUnits="userSpaceOnUse">
<stop stop-color="#384263" stop-opacity="0.25"/>
<stop offset="1" stop-color="#384263" stop-opacity="0.15"/>
</linearGradient>
<clipPath id="clip0_5158_3539">
<rect width="30" height="30" rx="3" fill="white"/>
</clipPath>
</defs>
</svg>
