<svg width="30" height="30" viewBox="0 0 30 30" fill="none" xmlns="http://www.w3.org/2000/svg">
<g clip-path="url(#clip0_5158_3530)">
<rect width="30" height="30" rx="5" fill="#181A3C"/>
<rect x="0.5" y="0.5" width="29" height="29" rx="4.5" stroke="url(#paint0_linear_5158_3530)" stroke-opacity="0.7"/>
<path d="M23 10.4234C22.4484 10.664 21.8558 10.8265 21.2328 10.8999C21.8756 10.5215 22.3565 9.92574 22.5858 9.22397C21.9819 9.57697 21.3209 9.82545 20.6317 9.95859C20.1682 9.47158 19.5543 9.14877 18.8852 9.0403C18.2162 8.93183 17.5295 9.04376 16.9317 9.35871C16.334 9.67366 15.8586 10.174 15.5794 10.7821C15.3002 11.3902 15.2328 12.0719 15.3877 12.7215C14.164 12.6611 12.9669 12.3481 11.8741 11.8029C10.7813 11.2577 9.81726 10.4924 9.04444 9.55683C8.78019 10.0054 8.62825 10.5255 8.62825 11.0794C8.62795 11.578 8.75273 12.069 8.99151 12.5088C9.23029 12.9486 9.57568 13.3236 9.99705 13.6005C9.50837 13.5852 9.03048 13.4552 8.60314 13.2215V13.2605C8.6031 13.9598 8.84892 14.6377 9.2989 15.1789C9.74888 15.7202 10.3753 16.0916 11.0719 16.2302C10.6185 16.3509 10.1433 16.3687 9.68193 16.2822C9.87847 16.8839 10.2613 17.4101 10.7768 17.7871C11.2923 18.1641 11.9148 18.373 12.5569 18.3846C11.4668 19.2268 10.1205 19.6836 8.73461 19.6816C8.48911 19.6816 8.24382 19.6675 8 19.6393C9.40677 20.5294 11.0444 21.0018 12.7168 21C18.3783 21 21.4733 16.3855 21.4733 12.3835C21.4733 12.2535 21.47 12.1221 21.4641 11.9921C22.0661 11.5637 22.5857 11.0332 22.9987 10.4254L23 10.4234Z" fill="#6988FF"/>
</g>
<defs>
<linearGradient id="paint0_linear_5158_3530" x1="-6.9553e-08" y1="-0.356436" x2="24.8833" y2="33.7347" gradientUnits="userSpaceOnUse">
<stop stop-color="#384263" stop-opacity="0.25"/>
<stop offset="1" stop-color="#384263" stop-opacity="0.15"/>
</linearGradient>
<clipPath id="clip0_5158_3530">
<rect width="30" height="30" rx="3" fill="white"/>
</clipPath>
</defs>
</svg>
