<svg width="15" height="15" viewBox="0 0 15 15" fill="none" xmlns="http://www.w3.org/2000/svg">
<g id="icon-confirm">
<path id="Vector" d="M12.1347 3.26781C12.3421 3.09414 12.618 2.99812 12.9043 3.00003C13.1906 3.00193 13.4649 3.10161 13.6692 3.27802C13.8736 3.45444 13.992 3.69379 13.9996 3.94558C14.0072 4.19736 13.9033 4.44189 13.7098 4.62755L7.83628 11.0896C7.73529 11.1853 7.61339 11.2621 7.47788 11.3154C7.34238 11.3687 7.19604 11.3974 7.04763 11.3998C6.89922 11.4023 6.75177 11.3783 6.61412 11.3295C6.47646 11.2806 6.35141 11.2078 6.24646 11.1155L2.35139 7.68892C2.24292 7.60001 2.15592 7.49278 2.09558 7.37364C2.03523 7.2545 2.00279 7.12589 2.00017 6.99548C1.99756 6.86507 2.02483 6.73554 2.08035 6.6146C2.13588 6.49366 2.21853 6.3838 2.32337 6.29157C2.42821 6.19935 2.55309 6.12664 2.69056 6.07779C2.82803 6.02894 2.97528 6.00495 3.12352 6.00725C3.27176 6.00955 3.41796 6.0381 3.55338 6.09118C3.68881 6.14427 3.8107 6.2208 3.91177 6.31623L6.99426 9.02665L12.1067 3.2963C12.1159 3.28633 12.1243 3.27682 12.1347 3.26781Z" fill="#6988FF"/>
</g>
</svg>
