<svg width="160" height="30" viewBox="0 0 160 30" fill="none" xmlns="http://www.w3.org/2000/svg">
<g id="logo">
<g id="Sharwa.Finance">
<path d="M42.8505 16.3784H38.7976C38.5262 16.3784 38.2549 16.2613 37.9836 16.027L37.5257 15.623C37.2883 15.4239 37.1696 15.1896 37.1696 14.9203V11.2838C37.1696 10.9324 37.3052 10.6396 37.5766 10.4054L37.9836 10.0541C38.2549 9.81982 38.5262 9.7027 38.7976 9.7027H43.3084C43.5797 9.7027 43.8511 9.81982 44.1224 10.0541L44.5294 10.4054C44.8007 10.6396 44.9364 10.9324 44.9364 11.2838V11.9865H43.5119V11.6527C43.5119 11.477 43.5006 11.3658 43.478 11.3189C43.4667 11.2604 43.4102 11.1901 43.3084 11.1081C43.2067 11.0261 43.1275 10.9793 43.071 10.9676C43.0145 10.9441 42.8845 10.9324 42.681 10.9324H39.425C39.2215 10.9324 39.0915 10.9441 39.035 10.9676C38.9784 10.9793 38.8993 11.0261 38.7976 11.1081C38.6958 11.1901 38.6336 11.2604 38.611 11.3189C38.5997 11.3658 38.5941 11.477 38.5941 11.6527V14.4284C38.5941 14.6041 38.5997 14.7212 38.611 14.7797C38.6336 14.8266 38.6958 14.891 38.7976 14.973C38.8993 15.055 38.9784 15.1077 39.035 15.1311C39.0915 15.1428 39.2215 15.1486 39.425 15.1486H43.478C43.7493 15.1486 44.0206 15.2658 44.292 15.5L44.699 15.8514C44.9703 16.0856 45.106 16.3784 45.106 16.7297V20.4189C45.106 20.7703 44.9703 21.0631 44.699 21.2973L44.292 21.6486C44.0206 21.8829 43.7493 22 43.478 22H38.628C38.3566 22 38.0853 21.8829 37.814 21.6486L37.407 21.2973C37.1357 21.0631 37 20.7703 37 20.4189V19.7162H38.4245V20.05C38.4245 20.2257 38.4301 20.3428 38.4414 20.4014C38.464 20.4482 38.5262 20.5126 38.628 20.5946C38.7297 20.6766 38.8089 20.7293 38.8654 20.7527C38.9219 20.7644 39.0519 20.7703 39.2554 20.7703H42.8505C43.054 20.7703 43.184 20.7644 43.2406 20.7527C43.2971 20.7293 43.3762 20.6766 43.478 20.5946C43.5797 20.5126 43.6363 20.4482 43.6476 20.4014C43.6702 20.3428 43.6815 20.2257 43.6815 20.05V17.0986C43.6815 16.923 43.6702 16.8117 43.6476 16.7649C43.6363 16.7063 43.5797 16.636 43.478 16.5541C43.3762 16.4721 43.2971 16.4252 43.2406 16.4135C43.184 16.3901 43.054 16.3784 42.8505 16.3784Z" fill="white"/>
<path d="M49.9039 13.2162H52.8716C53.1429 13.2162 53.4142 13.3333 53.6856 13.5676L54.0926 13.9189C54.3639 14.1532 54.4995 14.4459 54.4995 14.7973V22H53.0751V15.1662C53.0751 14.9905 53.0638 14.8793 53.0412 14.8324C53.0298 14.7739 52.9733 14.7036 52.8716 14.6216C52.7698 14.5396 52.6907 14.4928 52.6342 14.4811C52.5776 14.4577 52.4476 14.4459 52.2441 14.4459H50.0735C49.8587 14.4459 49.7117 14.4577 49.6326 14.4811C49.5647 14.5045 49.4291 14.5806 49.2256 14.7095C49.0221 14.8383 48.9034 14.932 48.8695 14.9905C48.8355 15.0491 48.8186 15.1662 48.8186 15.3419V22H47.3941V9H48.8186V14.0419H48.8864C48.8864 13.9365 49.0108 13.7725 49.2595 13.55C49.5082 13.3275 49.723 13.2162 49.9039 13.2162Z" fill="white"/>
<path d="M62.5048 21.2973H62.437C62.437 21.4378 62.3126 21.5842 62.0639 21.7365C61.8604 21.8653 61.7191 21.9414 61.64 21.9649C61.5721 21.9883 61.4365 22 61.233 22H58.3331C58.0618 22 57.7905 21.8829 57.5191 21.6486L57.1121 21.2973C56.8408 21.0631 56.7052 20.7703 56.7052 20.4189V18.3108C56.7052 17.9595 56.8408 17.6667 57.1121 17.4324L57.5191 17.0811C57.7905 16.8468 58.0618 16.7297 58.3331 16.7297H61.3686C61.5834 16.7297 61.7191 16.7414 61.7756 16.7649C61.8321 16.7766 61.9056 16.8234 61.9961 16.9054C62.1317 17.0225 62.1996 17.1396 62.1996 17.2568H62.2674V15.1662C62.2674 14.9905 62.2561 14.8793 62.2335 14.8324C62.2222 14.7739 62.1657 14.7036 62.0639 14.6216C61.9622 14.5396 61.883 14.4928 61.8265 14.4811C61.77 14.4577 61.64 14.4459 61.4365 14.4459H58.6893C58.4858 14.4459 58.3444 14.4635 58.2653 14.4986C58.1975 14.5221 58.0618 14.6216 57.8583 14.7973L56.8408 13.9189L57.2478 13.5676C57.4513 13.3919 57.587 13.2923 57.6548 13.2689C57.7339 13.2338 57.8753 13.2162 58.0788 13.2162H62.0639C62.3352 13.2162 62.6066 13.3333 62.8779 13.5676L63.2849 13.9189C63.5562 14.1532 63.6919 14.4459 63.6919 14.7973V20.05C63.6919 20.2257 63.6975 20.3428 63.7088 20.4014C63.7315 20.4482 63.7936 20.5126 63.8954 20.5946C63.9971 20.6766 64.0537 20.7468 64.065 20.8054C64.0876 20.8523 64.0989 20.9635 64.0989 21.1392V22H63.5053C63.3018 22 63.1605 21.9883 63.0814 21.9649C63.0136 21.9297 62.9118 21.8536 62.7761 21.7365C62.5953 21.5842 62.5048 21.4378 62.5048 21.2973ZM58.1296 18.6797V20.05C58.1296 20.2257 58.1353 20.3428 58.1466 20.4014C58.1692 20.4482 58.2314 20.5126 58.3331 20.5946C58.4349 20.6766 58.514 20.7293 58.5705 20.7527C58.6271 20.7644 58.7571 20.7703 58.9606 20.7703H61.0295C61.233 20.7703 61.3686 20.7586 61.4365 20.7351C61.5156 20.7117 61.6569 20.6356 61.8604 20.5068C62.0639 20.3779 62.1826 20.2842 62.2165 20.2257C62.2504 20.1671 62.2674 20.05 62.2674 19.8743V18.6797C62.2674 18.5041 62.2561 18.3928 62.2335 18.3459C62.2222 18.2874 62.1657 18.2171 62.0639 18.1351C61.9622 18.0532 61.883 18.0063 61.8265 17.9946C61.77 17.9712 61.64 17.9595 61.4365 17.9595H58.9606C58.7571 17.9595 58.6271 17.9712 58.5705 17.9946C58.514 18.0063 58.4349 18.0532 58.3331 18.1351C58.2314 18.2171 58.1692 18.2874 58.1466 18.3459C58.1353 18.3928 58.1296 18.5041 58.1296 18.6797Z" fill="white"/>
<path d="M66.1407 13.2162H66.7343C66.9378 13.2162 67.0734 13.2338 67.1413 13.2689C67.2204 13.2923 67.3278 13.3626 67.4635 13.4797C67.6444 13.632 67.7348 13.7784 67.7348 13.9189H67.8026C67.8026 13.7784 67.927 13.632 68.1757 13.4797C68.3792 13.3509 68.5149 13.2748 68.5827 13.2514C68.6618 13.2279 68.8032 13.2162 69.0066 13.2162H70.5668C70.8381 13.2162 71.1095 13.3333 71.3808 13.5676L71.7878 13.9189L70.7703 14.7973L70.5668 14.6216C70.465 14.5396 70.3859 14.4928 70.3294 14.4811C70.2729 14.4577 70.1428 14.4459 69.9393 14.4459H69.2101C69.0067 14.4459 68.8653 14.4577 68.7862 14.4811C68.7184 14.5045 68.5827 14.5806 68.3792 14.7095C68.1757 14.8383 68.057 14.932 68.0231 14.9905C67.9892 15.0491 67.9722 15.1662 67.9722 15.3419V22H66.5477V15.1662C66.5477 14.9905 66.5364 14.8793 66.5138 14.8324C66.5025 14.7739 66.446 14.7036 66.3442 14.6216C66.2425 14.5396 66.1803 14.4752 66.1577 14.4284C66.1464 14.3698 66.1407 14.2527 66.1407 14.077V13.2162Z" fill="white"/>
<path d="M78.4009 14.8324L76.722 22H74.8736L72.4656 13.2162H73.8392L75.6706 20.5068C75.7272 20.6824 75.7554 20.823 75.7554 20.9284H75.8233C75.8233 20.823 75.8515 20.6824 75.9081 20.5068L77.6547 13.2162H79.3845L81.1311 20.5068C81.1877 20.741 81.2159 20.8815 81.2159 20.9284H81.2838C81.2838 20.823 81.312 20.6824 81.3686 20.5068L83.2 13.2162H84.5736L82.1656 22H80.3172L78.6383 14.8324C78.5818 14.5982 78.5535 14.4577 78.5535 14.4108H78.4857C78.4857 14.4577 78.4574 14.5982 78.4009 14.8324Z" fill="white"/>
<path d="M91.8171 21.2973H91.7493C91.7493 21.4378 91.6249 21.5842 91.3762 21.7365C91.1727 21.8653 91.0314 21.9414 90.9523 21.9649C90.8844 21.9883 90.7488 22 90.5453 22H87.6454C87.3741 22 87.1028 21.8829 86.8314 21.6486L86.4245 21.2973C86.1531 21.0631 86.0175 20.7703 86.0175 20.4189V18.3108C86.0175 17.9595 86.1531 17.6667 86.4245 17.4324L86.8314 17.0811C87.1028 16.8468 87.3741 16.7297 87.6454 16.7297H90.6809C90.8957 16.7297 91.0314 16.7414 91.0879 16.7649C91.1445 16.7766 91.2179 16.8234 91.3084 16.9054C91.444 17.0225 91.5119 17.1396 91.5119 17.2568H91.5797V15.1662C91.5797 14.9905 91.5684 14.8793 91.5458 14.8324C91.5345 14.7739 91.478 14.7036 91.3762 14.6216C91.2745 14.5396 91.1953 14.4928 91.1388 14.4811C91.0823 14.4577 90.9523 14.4459 90.7488 14.4459H88.0016C87.7981 14.4459 87.6567 14.4635 87.5776 14.4986C87.5098 14.5221 87.3741 14.6216 87.1706 14.7973L86.1531 13.9189L86.5601 13.5676C86.7636 13.3919 86.8993 13.2923 86.9671 13.2689C87.0462 13.2338 87.1876 13.2162 87.3911 13.2162H91.3762C91.6475 13.2162 91.9189 13.3333 92.1902 13.5676L92.5972 13.9189C92.8685 14.1532 93.0042 14.4459 93.0042 14.7973V20.05C93.0042 20.2257 93.0098 20.3428 93.0211 20.4014C93.0438 20.4482 93.1059 20.5126 93.2077 20.5946C93.3094 20.6766 93.366 20.7468 93.3773 20.8054C93.3999 20.8523 93.4112 20.9635 93.4112 21.1392V22H92.8176C92.6142 22 92.4728 21.9883 92.3937 21.9649C92.3259 21.9297 92.2241 21.8536 92.0885 21.7365C91.9076 21.5842 91.8171 21.4378 91.8171 21.2973ZM87.4419 18.6797V20.05C87.4419 20.2257 87.4476 20.3428 87.4589 20.4014C87.4815 20.4482 87.5437 20.5126 87.6454 20.5946C87.7472 20.6766 87.8263 20.7293 87.8828 20.7527C87.9394 20.7644 88.0694 20.7703 88.2729 20.7703H90.3418C90.5453 20.7703 90.6809 20.7586 90.7488 20.7351C90.8279 20.7117 90.9692 20.6356 91.1727 20.5068C91.3762 20.3779 91.4949 20.2842 91.5288 20.2257C91.5628 20.1671 91.5797 20.05 91.5797 19.8743V18.6797C91.5797 18.5041 91.5684 18.3928 91.5458 18.3459C91.5345 18.2874 91.478 18.2171 91.3762 18.1351C91.2745 18.0532 91.1953 18.0063 91.1388 17.9946C91.0823 17.9712 90.9523 17.9595 90.7488 17.9595H88.2729C88.0694 17.9595 87.9394 17.9712 87.8828 17.9946C87.8263 18.0063 87.7472 18.0532 87.6454 18.1351C87.5437 18.2171 87.4815 18.2874 87.4589 18.3459C87.4476 18.3928 87.4419 18.5041 87.4419 18.6797Z" fill="white"/>
<path d="M96.8775 20.9635V21.3676C96.8775 21.5432 96.8719 21.6545 96.8606 21.7014C96.8493 21.7482 96.804 21.8068 96.7249 21.877C96.6458 21.959 96.4762 22 96.2162 22H96.1314C95.86 22 95.6791 21.959 95.5887 21.877C95.4983 21.7833 95.453 21.6135 95.453 21.3676V20.9635C95.453 20.7878 95.4587 20.6766 95.47 20.6297C95.4813 20.5829 95.5265 20.5243 95.6057 20.4541C95.6848 20.3721 95.86 20.3311 96.1314 20.3311H96.1992C96.4705 20.3311 96.6514 20.3721 96.7419 20.4541C96.8323 20.5477 96.8775 20.7176 96.8775 20.9635Z" fill="white"/>
<path d="M101.017 22H99.5925V9.7027H106.511V10.9324H101.017V15.1486H105.562V16.3784H101.017V22Z" fill="white"/>
<path d="M110.128 22H108.703V13.2162H110.128V22ZM110.28 10.4757V10.6162C110.28 10.8387 110.269 10.9793 110.246 11.0378C110.235 11.0964 110.184 11.1667 110.094 11.2486C110.003 11.3423 109.794 11.3892 109.466 11.3892H109.381C109.133 11.3892 108.98 11.3833 108.924 11.3716C108.867 11.3599 108.799 11.3189 108.72 11.2486C108.641 11.1667 108.59 11.0964 108.567 11.0378C108.556 10.9793 108.551 10.8387 108.551 10.6162V10.4757C108.551 10.2532 108.556 10.1126 108.567 10.0541C108.59 9.99549 108.647 9.92522 108.737 9.84324C108.805 9.77297 108.867 9.73198 108.924 9.72027C108.98 9.70856 109.133 9.7027 109.381 9.7027H109.449C109.788 9.7027 110.009 9.74955 110.111 9.84324C110.19 9.92522 110.235 9.99549 110.246 10.0541C110.269 10.1126 110.28 10.2532 110.28 10.4757Z" fill="white"/>
<path d="M112.229 13.2162H112.822C113.026 13.2162 113.162 13.2338 113.229 13.2689C113.309 13.2923 113.416 13.3626 113.552 13.4797C113.733 13.632 113.823 13.7784 113.823 13.9189H113.891C113.891 13.7784 114.015 13.632 114.264 13.4797C114.467 13.3509 114.603 13.2748 114.671 13.2514C114.75 13.2279 114.891 13.2162 115.095 13.2162H118.096C118.368 13.2162 118.639 13.3333 118.91 13.5676L119.317 13.9189C119.589 14.1532 119.724 14.4459 119.724 14.7973V22H118.3V15.1662C118.3 14.9905 118.289 14.8793 118.266 14.8324C118.255 14.7739 118.198 14.7036 118.096 14.6216C117.995 14.5396 117.916 14.4928 117.859 14.4811C117.803 14.4577 117.673 14.4459 117.469 14.4459H115.298C115.095 14.4459 114.954 14.4577 114.874 14.4811C114.807 14.5045 114.671 14.5806 114.467 14.7095C114.264 14.8383 114.145 14.932 114.111 14.9905C114.077 15.0491 114.06 15.1662 114.06 15.3419V22H112.636V15.1662C112.636 14.9905 112.625 14.8793 112.602 14.8324C112.591 14.7739 112.534 14.7036 112.432 14.6216C112.331 14.5396 112.269 14.4752 112.246 14.4284C112.235 14.3698 112.229 14.2527 112.229 14.077V13.2162Z" fill="white"/>
<path d="M127.721 21.2973H127.653C127.653 21.4378 127.528 21.5842 127.28 21.7365C127.076 21.8653 126.935 21.9414 126.856 21.9649C126.788 21.9883 126.652 22 126.449 22H123.549C123.278 22 123.006 21.8829 122.735 21.6486L122.328 21.2973C122.057 21.0631 121.921 20.7703 121.921 20.4189V18.3108C121.921 17.9595 122.057 17.6667 122.328 17.4324L122.735 17.0811C123.006 16.8468 123.278 16.7297 123.549 16.7297H126.584C126.799 16.7297 126.935 16.7414 126.991 16.7649C127.048 16.7766 127.121 16.8234 127.212 16.9054C127.347 17.0225 127.415 17.1396 127.415 17.2568H127.483V15.1662C127.483 14.9905 127.472 14.8793 127.449 14.8324C127.438 14.7739 127.381 14.7036 127.28 14.6216C127.178 14.5396 127.099 14.4928 127.042 14.4811C126.986 14.4577 126.856 14.4459 126.652 14.4459H123.905C123.701 14.4459 123.56 14.4635 123.481 14.4986C123.413 14.5221 123.278 14.6216 123.074 14.7973L122.057 13.9189L122.464 13.5676C122.667 13.3919 122.803 13.2923 122.871 13.2689C122.95 13.2338 123.091 13.2162 123.294 13.2162H127.28C127.551 13.2162 127.822 13.3333 128.094 13.5676L128.501 13.9189C128.772 14.1532 128.908 14.4459 128.908 14.7973V20.05C128.908 20.2257 128.913 20.3428 128.925 20.4014C128.947 20.4482 129.009 20.5126 129.111 20.5946C129.213 20.6766 129.269 20.7468 129.281 20.8054C129.303 20.8523 129.315 20.9635 129.315 21.1392V22H128.721C128.518 22 128.376 21.9883 128.297 21.9649C128.229 21.9297 128.128 21.8536 127.992 21.7365C127.811 21.5842 127.721 21.4378 127.721 21.2973ZM123.345 18.6797V20.05C123.345 20.2257 123.351 20.3428 123.362 20.4014C123.385 20.4482 123.447 20.5126 123.549 20.5946C123.651 20.6766 123.73 20.7293 123.786 20.7527C123.843 20.7644 123.973 20.7703 124.176 20.7703H126.245C126.449 20.7703 126.584 20.7586 126.652 20.7351C126.731 20.7117 126.873 20.6356 127.076 20.5068C127.28 20.3779 127.398 20.2842 127.432 20.2257C127.466 20.1671 127.483 20.05 127.483 19.8743V18.6797C127.483 18.5041 127.472 18.3928 127.449 18.3459C127.438 18.2874 127.381 18.2171 127.28 18.1351C127.178 18.0532 127.099 18.0063 127.042 17.9946C126.986 17.9712 126.856 17.9595 126.652 17.9595H124.176C123.973 17.9595 123.843 17.9712 123.786 17.9946C123.73 18.0063 123.651 18.0532 123.549 18.1351C123.447 18.2171 123.385 18.2874 123.362 18.3459C123.351 18.3928 123.345 18.5041 123.345 18.6797Z" fill="white"/>
<path d="M131.356 13.2162H131.95C132.154 13.2162 132.289 13.2338 132.357 13.2689C132.436 13.2923 132.544 13.3626 132.679 13.4797C132.86 13.632 132.951 13.7784 132.951 13.9189H133.018C133.018 13.7784 133.143 13.632 133.391 13.4797C133.595 13.3509 133.731 13.2748 133.798 13.2514C133.878 13.2279 134.019 13.2162 134.222 13.2162H137.224C137.495 13.2162 137.767 13.3333 138.038 13.5676L138.445 13.9189C138.716 14.1532 138.852 14.4459 138.852 14.7973V22H137.427V15.1662C137.427 14.9905 137.416 14.8793 137.394 14.8324C137.382 14.7739 137.326 14.7036 137.224 14.6216C137.122 14.5396 137.043 14.4928 136.987 14.4811C136.93 14.4577 136.8 14.4459 136.597 14.4459H134.426C134.222 14.4459 134.081 14.4577 134.002 14.4811C133.934 14.5045 133.798 14.5806 133.595 14.7095C133.391 14.8383 133.273 14.932 133.239 14.9905C133.205 15.0491 133.188 15.1662 133.188 15.3419V22H131.763V15.1662C131.763 14.9905 131.752 14.8793 131.73 14.8324C131.718 14.7739 131.662 14.7036 131.56 14.6216C131.458 14.5396 131.396 14.4752 131.373 14.4284C131.362 14.3698 131.356 14.2527 131.356 14.077V13.2162Z" fill="white"/>
<path d="M147.662 15.5H146.238V15.1662C146.238 14.9905 146.226 14.8793 146.204 14.8324C146.192 14.7739 146.136 14.7036 146.034 14.6216C145.932 14.5396 145.853 14.4928 145.797 14.4811C145.74 14.4577 145.61 14.4459 145.407 14.4459H143.134C142.931 14.4459 142.801 14.4577 142.744 14.4811C142.688 14.4928 142.609 14.5396 142.507 14.6216C142.405 14.7036 142.343 14.7739 142.32 14.8324C142.309 14.8793 142.303 14.9905 142.303 15.1662V20.05C142.303 20.2257 142.309 20.3428 142.32 20.4014C142.343 20.4482 142.405 20.5126 142.507 20.5946C142.609 20.6766 142.688 20.7293 142.744 20.7527C142.801 20.7644 142.931 20.7703 143.134 20.7703H145.407C145.61 20.7703 145.74 20.7644 145.797 20.7527C145.853 20.7293 145.932 20.6766 146.034 20.5946C146.136 20.5126 146.192 20.4482 146.204 20.4014C146.226 20.3428 146.238 20.2257 146.238 20.05V19.7162H147.662V20.4189C147.662 20.7703 147.526 21.0631 147.255 21.2973L146.848 21.6486C146.577 21.8829 146.305 22 146.034 22H142.507C142.235 22 141.964 21.8829 141.693 21.6486L141.286 21.2973C141.014 21.0631 140.879 20.7703 140.879 20.4189V14.7973C140.879 14.4459 141.014 14.1532 141.286 13.9189L141.693 13.5676C141.964 13.3333 142.235 13.2162 142.507 13.2162H146.034C146.305 13.2162 146.577 13.3333 146.848 13.5676L147.255 13.9189C147.526 14.1532 147.662 14.4459 147.662 14.7973V15.5Z" fill="white"/>
<path d="M155.983 20.4189L157 21.2973L156.593 21.6486C156.39 21.8243 156.248 21.9297 156.169 21.9649C156.101 21.9883 155.966 22 155.762 22H151.234C150.963 22 150.692 21.8829 150.42 21.6486L150.013 21.2973C149.742 21.0631 149.606 20.7703 149.606 20.4189V14.7973C149.606 14.4459 149.742 14.1532 150.013 13.9189L150.42 13.5676C150.692 13.3333 150.963 13.2162 151.234 13.2162H155.185C155.412 13.2162 155.683 13.3333 155.999 13.5676L156.423 13.9189C156.695 14.1297 156.83 14.4225 156.83 14.7973V18.3986H151.031V20.05C151.031 20.2257 151.036 20.3428 151.048 20.4014C151.07 20.4482 151.132 20.5126 151.234 20.5946C151.336 20.6766 151.415 20.7293 151.472 20.7527C151.528 20.7644 151.658 20.7703 151.862 20.7703H155.152C155.355 20.7703 155.491 20.7586 155.559 20.7351C155.638 20.7 155.779 20.5946 155.983 20.4189ZM155.406 17.2568V15.1662C155.406 14.9905 155.395 14.8793 155.372 14.8324C155.361 14.7739 155.304 14.7036 155.202 14.6216C155.101 14.5396 155.022 14.4928 154.965 14.4811C154.909 14.4577 154.778 14.4459 154.575 14.4459H151.862C151.658 14.4459 151.528 14.4577 151.472 14.4811C151.415 14.4928 151.336 14.5396 151.234 14.6216C151.132 14.7036 151.07 14.7739 151.048 14.8324C151.036 14.8793 151.031 14.9905 151.031 15.1662V17.2568H155.406Z" fill="white"/>
</g>
<g id="mountain">
<g id="Vector">
<path d="M30.7188 29.9995H24.4901C24.3926 29.9994 24.2992 29.9598 24.2303 29.8894C24.1614 29.819 24.1227 29.7234 24.1227 29.6238V19.4238C24.1227 19.0597 24.5906 18.9251 24.7765 19.2356L30.9587 29.5624C30.9848 29.606 30.999 29.6558 31 29.7069C31.0009 29.7579 30.9885 29.8083 30.9641 29.8528C30.9396 29.8973 30.904 29.9344 30.8609 29.9602C30.8178 29.9859 30.7687 29.9995 30.7188 29.9995Z" fill="white"/>
<path d="M22.2016 15.726V29.6319C22.2016 29.6802 22.1923 29.728 22.1742 29.7726C22.1561 29.8172 22.1296 29.8577 22.0962 29.8919C22.0628 29.926 22.0231 29.9531 21.9795 29.9716C21.9358 29.99 21.889 29.9995 21.8418 29.9995H17.4191C17.3718 29.9995 17.3251 29.99 17.2814 29.9715C17.2378 29.9531 17.1981 29.926 17.1647 29.8918C17.1313 29.8577 17.1048 29.8172 17.0868 29.7726C17.0687 29.728 17.0594 29.6802 17.0594 29.6319L17.3916 9.39349C17.3916 9.01094 17.8722 8.85415 18.089 9.16597L22.1074 15.4245C22.1687 15.5125 22.2016 15.6179 22.2016 15.726Z" fill="white"/>
<path d="M14.9505 19.2147V29.6461C14.9505 29.7398 14.9141 29.8297 14.8492 29.896C14.7844 29.9623 14.6964 29.9995 14.6047 29.9995H9.66284C9.61743 29.9995 9.57247 29.9904 9.53053 29.9726C9.48858 29.9548 9.45047 29.9288 9.41837 29.896C9.38627 29.8632 9.36081 29.8242 9.34345 29.7813C9.32609 29.7384 9.31716 29.6925 9.31718 29.6461V14.946C9.31718 14.6194 9.69274 14.444 9.93468 14.6567L14.8458 18.9818C14.8786 19.0107 14.9049 19.0464 14.923 19.0866C14.9411 19.1267 14.9505 19.1704 14.9505 19.2147Z" fill="white"/>
<path d="M7.42233 19.7406L7.05299 29.5196C7.04814 29.6486 6.99456 29.7708 6.90351 29.8604C6.81245 29.9499 6.691 30 6.56462 30H1.28966C1.23882 30 1.18888 29.9863 1.14485 29.9604C1.10083 29.9344 1.06426 29.897 1.03883 29.852C1.01341 29.8071 1.00001 29.756 1 29.704C0.999987 29.6521 1.01335 29.601 1.03876 29.556L6.70098 19.5283C6.90291 19.1706 7.43793 19.3284 7.42233 19.7406Z" fill="white"/>
</g>
<path id="Vector_2" d="M15.7269 4.44433L14.8253 16.0102C14.8254 16.0516 14.8143 16.0921 14.7935 16.127C14.7727 16.1619 14.743 16.1897 14.7079 16.2071C14.6728 16.2246 14.6337 16.231 14.5953 16.2255C14.5569 16.22 14.5208 16.203 14.4912 16.1763L9.98313 12.1256C9.93252 12.0801 9.8732 12.047 9.80932 12.0287C9.74545 12.0103 9.67859 12.0072 9.61345 12.0194C9.5483 12.0316 9.48645 12.0589 9.43226 12.0994C9.37807 12.1399 9.33285 12.1926 9.29979 12.2538L7.45095 15.6725L5.17041 19.9503C5.11429 20.0556 4.96452 19.9775 5.00771 19.8654L9.3372 8.64093C9.36587 8.56651 9.41132 8.5008 9.46949 8.44964C9.52767 8.39849 9.59677 8.36347 9.67067 8.3477C9.74457 8.33193 9.82097 8.3359 9.89309 8.35925C9.96521 8.3826 10.0308 8.42462 10.0841 8.48156L12.7462 11.6979C12.9253 11.8892 13.2322 11.7785 13.2659 11.5111L15.0137 0.596511C15.1483 -0.222633 16.0262 -0.0820855 16.2497 0.327774L18.9889 8.47236C19.0352 8.55729 18.9256 8.63978 18.8663 8.56462L16.4354 4.16826C16.1943 3.86231 15.7269 4.04439 15.7269 4.44433Z" fill="#6988FF"/>
</g>
</g>
</svg>
