<svg width="15" height="15" viewBox="0 0 15 15" fill="none" xmlns="http://www.w3.org/2000/svg">
<path d="M2 11.5004V14.0001H4.49966L11.872 6.62773L9.37233 4.12807L2 11.5004ZM13.8051 4.69466C13.8669 4.63299 13.9159 4.55974 13.9493 4.4791C13.9828 4.39847 14 4.31202 14 4.22472C14 4.13742 13.9828 4.05098 13.9493 3.97034C13.9159 3.8897 13.8669 3.81645 13.8051 3.75479L12.2453 2.195C12.1836 2.1332 12.1104 2.08418 12.0297 2.05073C11.9491 2.01728 11.8626 2.00006 11.7753 2.00006C11.688 2.00006 11.6016 2.01728 11.521 2.05073C11.4403 2.08418 11.3671 2.1332 11.3054 2.195L10.0856 3.41483L12.5852 5.91449L13.8051 4.69466Z" fill="#6988FF"/>
</svg>
